<svg width="32" height="39" viewBox="0 0 32 39" fill="none" xmlns="http://www.w3.org/2000/svg">
<path d="M11.9187 0C9.73016 0 7.92744 1.88732 7.92744 4.17857V20.6324L7.05469 19.6741L6.72209 19.3691C5.98208 18.5978 4.9804 18.1648 3.9362 18.1648C2.892 18.1648 1.89032 18.5978 1.15031 19.3691C0.413602 20.1438 0 21.1925 0 22.2857C0 23.3789 0.413602 24.4276 1.15031 25.2023V25.2455L12.0437 36.5193L12.1262 36.5625L12.1675 36.6502C14.082 38.1696 16.4172 38.9945 18.8196 39H21.1079C22.5392 39.0031 23.957 38.7102 25.2799 38.1382C26.6028 37.5661 27.8048 36.7262 28.8169 35.6665C29.8289 34.6068 30.6311 33.3483 31.1773 31.9632C31.7236 30.5782 32.0031 29.0938 32 27.5953V16.7143C32 14.423 30.1959 12.5357 28.0087 12.5357C27.442 12.5357 26.9178 12.6987 26.4282 12.9271C25.9918 11.1164 24.4179 9.74999 22.562 9.74999C21.5429 9.74999 20.6076 10.1679 19.9012 10.8378C19.1739 10.1421 18.2255 9.7544 17.2403 9.74999C16.7857 9.75595 16.3356 9.84455 15.9099 10.0119V4.17857C15.9099 1.88732 14.1072 0 11.9187 0ZM11.9187 2.78571C12.6571 2.78571 13.2491 3.40553 13.2491 4.17857V19.5H15.9099V13.9286C15.9099 13.1555 16.502 12.5357 17.2403 12.5357C17.9787 12.5357 18.5708 13.1555 18.5708 13.9286V19.5H21.2316V13.9286C21.2316 13.1555 21.8236 12.5357 22.562 12.5357C23.3004 12.5357 23.8924 13.1555 23.8924 13.9286V19.5H26.6783V16.7143C26.6783 15.9412 27.2703 15.3214 28.0087 15.3214C28.7458 15.3214 29.3391 15.9412 29.3391 16.7143V27.5967C29.3391 32.4215 25.7164 36.2143 21.1065 36.2143H18.8209C16.8718 36.2143 15.1875 35.4858 13.7893 34.3854L3.02087 23.2426C2.42884 22.6228 2.42884 21.9472 3.02087 21.3274C3.61424 20.7076 4.25816 20.7076 4.85019 21.3274L10.5883 27.3348V4.17857C10.5883 3.40553 11.1803 2.78571 11.9187 2.78571Z" fill="#4F8FF0"/>
</svg>
